# Blender v2.75 (sub 0) OBJ File: 'Drone_1.blend'
# www.blender.org
mtllib Propeller.mtl
o Cube.000
v -2.101035 1.195146 2.748306
v -2.310202 1.188398 2.840416
v -1.988010 1.079475 2.606531
v -2.075268 1.036021 2.558632
v -2.398080 1.134890 2.791245
v -2.192514 1.159744 2.692524
v -2.018561 0.943867 2.497222
v -2.501211 1.088443 2.847939
v -1.995330 1.185055 2.818512
v -2.118954 1.108030 2.985895
v -1.799829 1.137186 2.731781
v -2.183871 1.036270 3.074781
v -1.706612 1.079610 2.692469
v -0.974957 1.269864 3.793166
v -2.221768 1.103461 2.911841
v -1.893089 1.144561 2.665994
v -1.073806 1.197021 3.845392
v -0.607894 1.279331 3.510988
v -2.283404 1.032769 3.003831
v -1.796240 1.095095 2.623605
v -3.232296 0.876973 1.741155
v -1.985505 1.058250 2.619942
v -2.316246 1.165945 2.840280
v -3.551481 0.985728 1.930785
v -3.405962 0.986290 1.813804
v -2.100902 1.170729 2.750569
v -3.139283 0.794253 1.715433
v -3.607353 0.963857 2.006770
v -1.931494 0.963737 2.556080
v -2.421284 1.126470 2.897757
v -2.071618 1.059183 2.549070
v -2.394256 1.159531 2.781432
v -2.188895 1.182645 2.683007
v -2.014830 0.967710 2.487545
v -2.497235 1.114358 2.837911
v -1.999855 1.209667 2.819901
v -2.123449 1.132889 2.987242
v -1.804152 1.163496 2.732882
v -2.188277 1.061898 3.075998
v -1.710787 1.107165 2.693359
v -2.220114 1.128133 2.917396
v -1.900067 1.165027 2.658509
v -2.281885 1.058272 3.009079
v -1.802191 1.119457 2.619119
v -3.228634 0.900239 1.731575
v -3.547715 1.009871 1.921057
v -3.402344 1.009191 1.804286
v -3.135514 0.818423 1.705700
v -1.933675 0.985817 2.542691
v -2.415866 1.151447 2.893805
v -3.603458 0.989096 1.996856
v -0.795867 1.356510 3.687106
v -0.657213 1.322716 3.575907
v -0.612146 1.306237 3.511988
v -0.800391 1.381122 3.688494
v -0.979438 1.294835 3.794495
v -0.661592 1.348547 3.577090
v -1.078181 1.222887 3.846568
v -0.657213 1.322716 3.575907
v -0.607894 1.279331 3.510988
v -0.607894 1.279331 3.510988
v -3.547715 1.009871 1.921057
v -3.603458 0.989096 1.996856
v -3.603458 0.989096 1.996856
v -1.078181 1.222887 3.846568
v -1.078181 1.222887 3.846568
v -0.979438 1.294835 3.794495
v -0.661592 1.348547 3.577090
v -0.612146 1.306237 3.511988
v -0.612146 1.306237 3.511988
v -0.800391 1.381122 3.688494
v -0.795867 1.356510 3.687106
v -1.706612 1.079610 2.692469
v -0.974957 1.269864 3.793166
v -2.188277 1.061898 3.075998
v -3.135514 0.818423 1.705700
v -3.135514 0.818423 1.705700
v -3.139283 0.794253 1.715433
v -3.139283 0.794253 1.715433
v -3.607353 0.963857 2.006770
v -3.607353 0.963857 2.006770
v -2.501211 1.088443 2.847939
v -1.073806 1.197021 3.845392
v -1.073806 1.197021 3.845392
v -2.183871 1.036270 3.074781
v -2.014830 0.967710 2.487545
v -2.018561 0.943867 2.497222
v -1.931494 0.963737 2.556080
v -2.283404 1.032769 3.003831
v -1.796240 1.095095 2.623605
v -2.421284 1.126470 2.897757
v -3.232296 0.876973 1.741155
v -3.405962 0.986290 1.813804
v -3.551481 0.985728 1.930785
v -1.933675 0.985817 2.542691
v -2.497235 1.114358 2.837911
v -2.281885 1.058272 3.009079
v -1.710787 1.107165 2.693359
v -1.802191 1.119457 2.619119
v -2.415866 1.151447 2.893805
v -3.228634 0.900239 1.731575
v -3.402344 1.009191 1.804286
vt 0.686631 0.683860
vt 0.702516 0.684753
vt 0.703237 0.681321
vt 0.686576 0.680388
vt 0.725490 0.696919
vt 0.738469 0.695402
vt 0.738895 0.691913
vt 0.726115 0.693869
vt 0.684839 0.701641
vt 0.505147 0.685894
vt 0.499380 0.701743
vt 0.659167 0.773950
vt 0.665943 0.759066
vt 0.484645 0.748450
vt 0.481770 0.759926
vt 0.681490 0.732415
vt 0.491373 0.728000
vt 0.505129 0.682406
vt 0.713122 0.763447
vt 0.713140 0.778959
vt 0.882266 0.787848
vt 0.887812 0.773626
vt 0.701667 0.779115
vt 0.675761 0.772731
vt 0.675567 0.776106
vt 0.701570 0.781903
vt 0.658785 0.777428
vt 0.699632 0.763252
vt 0.682378 0.758940
vt 0.717484 0.709216
vt 0.730863 0.709745
vt 0.699114 0.733462
vt 0.714319 0.734732
vt 0.701279 0.703014
vt 0.481619 0.763338
vt 0.479858 0.775949
vt 0.664842 0.791462
vt 0.897550 0.831807
vt 0.887784 0.806023
vt 0.711122 0.796827
vt 0.707519 0.824006
vt 0.908589 0.718952
vt 0.904588 0.730155
vt 0.907740 0.729769
vt 0.912000 0.718032
vt 0.481417 0.749140
vt 0.478325 0.761220
vt 0.496783 0.699849
vt 0.488255 0.727282
vt 0.502664 0.683559
vt 0.902853 0.854652
vt 0.719897 0.850022
vt 0.713248 0.781948
vt 0.882065 0.791164
vt 0.908969 0.715678
vt 0.896330 0.749826
vt 0.492086 0.826576
vt 0.497809 0.842905
vt 0.673066 0.865280
vt 0.674195 0.848336
vt 0.902771 0.866901
vt 0.726280 0.864899
vt 0.884528 0.790176
vt 0.890178 0.775559
vt 0.899242 0.750716
vt 0.697237 0.794717
vt 0.693033 0.821647
vt 0.707583 0.847881
vt 0.713401 0.862522
vt 0.688625 0.866900
vt 0.690751 0.850010
vt 0.680102 0.794110
vt 0.676036 0.818882
vt 0.483008 0.798846
vn -0.562600 -0.133500 0.815900
vn -0.591600 -0.033200 0.805500
vn -0.590400 -0.041000 0.806100
vn -0.562100 -0.133500 0.816200
vn -0.616200 0.187700 0.764900
vn -0.604500 0.339700 0.720500
vn -0.602200 0.344400 0.720200
vn -0.616400 0.191000 0.763900
vn -0.317300 0.890200 0.326900
vn -0.364700 0.838100 0.405500
vn -0.392300 0.833100 0.389900
vn -0.331200 0.898800 0.287000
vn 0.261800 0.860100 -0.437800
vn 0.194500 0.926000 -0.323600
vn 0.146700 0.905900 -0.397200
vn 0.220900 0.841900 -0.492200
vn -0.109700 0.993800 -0.014600
vn -0.082000 0.992800 -0.087300
vn -0.552200 -0.132400 0.823100
vn 0.290500 0.732600 -0.615500
vn 0.345200 0.654900 -0.672200
vn 0.373100 0.654500 -0.657600
vn 0.307400 0.754100 -0.580300
vn 0.594600 -0.285000 -0.751800
vn 0.621100 -0.060500 -0.781400
vn 0.621000 -0.061600 -0.781400
vn 0.593300 -0.293200 -0.749700
vn 0.603700 0.091800 -0.791800
vn 0.601200 0.094600 -0.793500
vn 0.064600 0.685700 -0.725000
vn 0.040300 0.836200 -0.546900
vn 0.184100 0.798500 -0.573100
vn 0.163300 0.624800 -0.763500
vn -0.230300 0.939300 0.254300
vn -0.086600 0.969700 0.228200
vn -0.233000 0.972300 -0.018500
vn -0.290700 0.949700 0.115800
vn -0.020700 0.986100 -0.164900
vn 0.078000 0.943500 -0.322000
vn -0.102100 0.884500 0.455200
vn -0.226800 -0.836000 0.499500
vn -0.152000 -0.902000 0.404000
vn -0.197100 -0.923200 0.329900
vn -0.272300 -0.854700 0.441900
vn -0.044600 -0.967800 0.247700
vn -0.308800 -0.752200 0.582100
vn -0.294200 -0.733900 0.612100
vn -0.054900 -0.938800 0.339900
vn -0.783100 -0.121100 -0.609900
vn -0.673600 -0.185100 -0.715500
vn -0.727000 -0.155900 -0.668700
vn 0.825500 0.112200 0.553100
vn 0.705100 0.086800 0.703700
vn 0.764600 0.099100 0.636800
vn 0.562400 0.056800 0.824900
vn 0.475400 0.038800 0.878900
vn 0.466300 0.037200 0.883800
vn 0.569400 0.058300 0.820000
vn 0.447000 0.033800 0.893900
vn 0.186300 -0.979200 -0.080200
vn 0.235000 -0.971900 0.010700
vn 0.579500 0.117600 -0.806400
vn 0.562200 -0.383900 -0.732500
vn 0.569300 -0.383100 -0.727400
vn 0.568900 -0.383200 -0.727700
vn -0.588300 0.370700 0.718600
vn 0.047100 0.966800 -0.251100
vn -0.181300 0.980700 0.072700
vn -0.248700 0.952400 0.176400
vn 0.332400 -0.897700 -0.288900
vn 0.394300 -0.830500 -0.393400
vn 0.365300 -0.835700 -0.410000
vn 0.320800 -0.890400 -0.323000
vn 0.254000 -0.949400 -0.184500
vn 0.299600 -0.946400 -0.120800
vn -0.492900 -0.263300 -0.829200
vn -0.470400 -0.268500 -0.840600
vn -0.485300 -0.265100 -0.833200
vn -0.557800 -0.239300 -0.794700
vn -0.562600 -0.237300 -0.791900
vn -0.375400 -0.650400 0.660300
vn -0.345600 -0.650800 0.676000
vn -0.149600 -0.615300 0.773900
vn -0.051800 -0.673900 0.737000
vn 0.022200 -0.984400 0.174500
vn 0.071200 -0.969200 -0.235700
vn 0.235600 -0.937300 -0.257000
vn 0.171700 -0.832700 -0.526400
vn 0.089500 -0.878900 -0.468500
vn -0.031500 -0.834400 0.550200
vn -0.188200 -0.793900 0.578200
vn 0.093800 -0.995600 0.001600
vn 0.079400 -0.992700 0.090900
vn -0.185100 0.838200 0.513000
usemtl Material
s 1
f 39/1/1 97/2/2 89/3/3 85/4/4
f 50/5/5 96/6/6 82/7/7 91/8/8
f 37/9/9 75/1/10 65/10/11 67/11/12
f 40/12/13 38/13/14 68/14/15 69/15/16
f 36/16/17 37/9/9 67/11/12 71/17/18
f 38/13/14 36/16/17 71/17/18 68/14/15
f 66/10/19 39/1/1 85/4/4 83/18/19
f 31/19/20 34/20/21 77/21/22 45/22/23
f 49/23/24 99/24/25 90/25/26 88/26/27
f 99/24/25 98/12/28 13/27/29 90/25/26
f 3/28/30 42/29/31 44/24/32 95/23/33
f 42/29/31 36/16/17 38/13/14
f 100/5/34 2/30/35 32/31/36 35/6/37
f 3/28/30 95/23/33 34/20/21 31/19/20
f 2/30/35 1/32/38 33/33/39
f 1/32/38 42/29/31 3/28/30
f 2/30/35 41/34/40 1/32/38
f 3/28/30 31/19/20 33/33/39
f 41/34/40 37/9/9 36/16/17
f 2/30/35 33/33/39 32/31/36
f 60/35/41 59/36/42 11/37/43 73/27/44
f 25/38/45 21/39/46 4/40/47 6/41/48
f 63/42/49 62/43/50 94/44/51 81/45/49
f 70/15/52 57/14/53 53/46/54 61/47/52
f 55/17/55 56/11/56 74/48/57 72/49/58
f 57/14/53 55/17/55 72/49/58 53/46/54
f 56/11/56 58/10/59 84/50/59 74/48/57
f 24/51/60 25/38/45 6/41/48 5/52/61
f 13/27/29 98/12/28 54/15/62 18/35/62
f 76/21/63 86/20/64 87/53/65 78/54/63
f 82/7/7 96/6/6 64/42/66 80/55/66
f 32/31/36 33/33/39 47/56/67 46/43/68
f 35/6/37 32/31/36 46/43/68 51/42/69
f 33/33/39 31/19/20 45/22/23 47/56/67
f 14/57/70 17/58/71 12/59/72 10/60/73
f 28/61/74 24/51/60 5/52/61 8/62/75
f 97/2/2 50/5/5 91/8/8 89/3/3
f 101/22/76 48/21/77 79/63/77 92/64/78
f 62/43/50 102/56/79 93/65/80 94/44/51
f 102/56/79 101/22/76 92/64/78 93/65/80
f 21/39/46 27/54/81 7/53/82 4/40/47
f 4/40/47 7/53/82 29/26/83 22/66/84
f 6/41/48 4/40/47 22/66/84 26/67/85
f 8/62/75 5/52/61 23/68/86 30/69/87
f 5/52/61 6/41/48 26/67/85 23/68/86
f 10/60/73 12/59/72 19/70/88 15/71/89
f 73/27/44 11/37/43 16/72/90 20/25/91
f 9/73/92 10/60/73 15/71/89 26/67/85
f 11/37/43 9/73/92 26/67/85 16/72/90
f 22/66/84 16/72/90 26/67/85
f 26/67/85 15/71/89 23/68/86
f 59/36/42 52/74/93 9/73/92 11/37/43
f 29/26/83 20/25/91 16/72/90 22/66/84
f 23/68/86 15/71/89 19/70/88 30/69/87
f 1/32/38 3/28/30 33/33/39
f 1/32/38 41/34/40 36/16/17
f 41/34/40 43/2/94 75/1/10 37/9/9
f 44/24/32 42/29/31 38/13/14 40/12/13
f 42/29/31 1/32/38 36/16/17
f 100/5/34 43/2/94 41/34/40 2/30/35
f 52/74/93 14/57/70 10/60/73 9/73/92
f 86/20/64 49/23/24 88/26/27 87/53/65
