<?xml version="1.0" encoding="UTF-8" standalone="no"?>
<!-- Created with Inkscape (http://www.inkscape.org/) -->

<svg
   xmlns:dc="http://purl.org/dc/elements/1.1/"
   xmlns:cc="http://creativecommons.org/ns#"
   xmlns:rdf="http://www.w3.org/1999/02/22-rdf-syntax-ns#"
   xmlns:svg="http://www.w3.org/2000/svg"
   xmlns="http://www.w3.org/2000/svg"
   xmlns:sodipodi="http://sodipodi.sourceforge.net/DTD/sodipodi-0.dtd"
   xmlns:inkscape="http://www.inkscape.org/namespaces/inkscape"
   width="500cm"
   height="500cm"
   viewBox="0 0 5000 4999.9999"
   version="1.1"
   id="svg8"
   inkscape:version="0.92.2 5c3e80d, 2017-08-06"
   sodipodi:docname="intersectionDesignV1.svg">
  <defs
     id="defs2" />
  <sodipodi:namedview
     id="base"
     pagecolor="#ffffff"
     bordercolor="#666666"
     borderopacity="1.0"
     inkscape:pageopacity="0.0"
     inkscape:pageshadow="2"
     inkscape:zoom="0.36377198"
     inkscape:cx="9542.6216"
     inkscape:cy="9907.9596"
     inkscape:document-units="cm"
     inkscape:current-layer="layer1"
     showgrid="false"
     units="cm"
     inkscape:window-width="1920"
     inkscape:window-height="1093"
     inkscape:window-x="0"
     inkscape:window-y="1"
     inkscape:window-maximized="1"
     viewbox-x="0"
     viewbox-y="0"
     showguides="true"
     inkscape:guide-bbox="true"
     inkscape:snap-center="true">
    <inkscape:grid
       type="xygrid"
       id="grid836"
       spacingx="2.4999999"
       spacingy="2.4999999"
       empspacing="5"
       originx="2499.9999"
       originy="2499.9999"
       units="cm" />
    <sodipodi:guide
       position="2499.9816,2552.5676"
       orientation="1,0"
       id="guide844"
       inkscape:locked="false" />
    <sodipodi:guide
       position="2499.9816,2499.9816"
       orientation="0,1"
       id="guide854"
       inkscape:locked="false" />
    <sodipodi:guide
       position="2447.4999,2552.4999"
       orientation="0,1"
       id="guide862"
       inkscape:locked="false" />
    <sodipodi:guide
       position="2447.4999,2552.4999"
       orientation="1,0"
       id="guide864"
       inkscape:locked="false" />
    <sodipodi:guide
       position="2552.4999,2447.4999"
       orientation="0.001829798,-0.99999833"
       id="guide866"
       inkscape:locked="false" />
    <sodipodi:guide
       position="2552.4999,2447.4999"
       orientation="1,0"
       id="guide868"
       inkscape:locked="false" />
    <sodipodi:guide
       position="1949.9999,2499.9815"
       orientation="1,0"
       id="guide881"
       inkscape:locked="false" />
    <sodipodi:guide
       position="2499.8104,3049.9812"
       orientation="0,1"
       id="guide883"
       inkscape:locked="false" />
    <sodipodi:guide
       position="2500.189,1949.9813"
       orientation="0,1"
       id="guide885"
       inkscape:locked="false" />
    <sodipodi:guide
       position="3049.9999,2499.9815"
       orientation="1,0"
       id="guide887"
       inkscape:locked="false" />
  </sodipodi:namedview>
  <metadata
     id="metadata5">
    <rdf:RDF>
      <cc:Work
         rdf:about="">
        <dc:format>image/svg+xml</dc:format>
        <dc:type
           rdf:resource="http://purl.org/dc/dcmitype/StillImage" />
        <dc:title />
      </cc:Work>
    </rdf:RDF>
  </metadata>
  <g
     inkscape:label="Layer 1"
     inkscape:groupmode="layer"
     id="layer1"
     transform="translate(0,4703)">
    <path
       style="color:#000000;font-style:normal;font-variant:normal;font-weight:normal;font-stretch:normal;font-size:medium;line-height:normal;font-family:sans-serif;font-variant-ligatures:normal;font-variant-position:normal;font-variant-caps:normal;font-variant-numeric:normal;font-variant-alternates:normal;font-feature-settings:normal;text-indent:0;text-align:start;text-decoration:none;text-decoration-line:none;text-decoration-style:solid;text-decoration-color:#000000;letter-spacing:normal;word-spacing:normal;text-transform:none;writing-mode:lr-tb;direction:ltr;text-orientation:mixed;dominant-baseline:auto;baseline-shift:baseline;text-anchor:start;white-space:normal;shape-padding:0;clip-rule:nonzero;display:inline;overflow:visible;visibility:visible;opacity:1;isolation:auto;mix-blend-mode:normal;color-interpolation:sRGB;color-interpolation-filters:linearRGB;solid-color:#000000;solid-opacity:1;vector-effect:none;fill:#505050;fill-opacity:1;fill-rule:nonzero;stroke:none;stroke-width:396.85037231;stroke-linecap:butt;stroke-linejoin:miter;stroke-miterlimit:4;stroke-dasharray:none;stroke-dashoffset:525;stroke-opacity:1;color-rendering:auto;image-rendering:auto;shape-rendering:auto;text-rendering:auto;enable-background:accumulate"
       d="M 10246.729 6373.7383 C 9698.7786 6373.7383 9250.4169 6822.1141 9249.9297 7369.9688 L 9249.9297 7370.0781 L 9250.3281 9250.4375 L 9647.1777 9250.3496 L 9646.7793 7370.3242 C 9647.0741 7036.7522 9913.2525 6770.5898 10246.729 6770.5898 L 11527.42 6770.5898 C 11860.896 6770.5898 12126.977 7036.6704 12126.977 7370.1465 L 12126.977 8650.875 C 12126.977 8978.7226 11841.998 9250.4609 11508.521 9250.4609 L 9647.1035 9250.4609 L 9647.1035 9647.3125 L 11508.521 9647.3125 C 12056.471 9647.3125 12523.827 9204.5233 12523.826 8650.875 L 12523.826 7370.1465 C 12523.826 6822.1966 12075.37 6373.7383 11527.42 6373.7383 L 10246.729 6373.7383 z M 7388.9766 9250.4609 C 6841.0267 9250.4609 6373.6715 9693.2556 6373.6719 10246.904 L 6373.6719 11527.633 C 6373.6719 12075.583 6822.1302 12524.033 7370.0801 12524.033 L 8650.7715 12524.033 C 9198.7214 12524.033 9647.0812 12075.652 9647.5684 11527.797 L 9647.5684 11527.693 L 9647.1777 9647.5645 L 9250.3281 9647.6426 L 9250.7188 11527.449 C 9250.4202 11861.021 8984.2475 12127.184 8650.7715 12127.184 L 7370.0801 12127.184 C 7036.604 12127.184 6770.5215 11861.109 6770.5215 11527.633 L 6770.5215 10246.904 C 6770.5211 9919.0563 7055.5005 9647.3105 7388.9766 9647.3105 L 9250.3945 9647.3105 L 9250.3945 9250.4609 L 7388.9766 9250.4609 z "
       transform="matrix(0.26458332,0,0,0.26458332,0,-4703)"
       id="path948" />
    <path
       style="fill:none;stroke:#6d6d6d;stroke-width:74.99999237;stroke-linecap:butt;stroke-linejoin:miter;stroke-miterlimit:4;stroke-dasharray:none;stroke-dashoffset:525;stroke-opacity:1"
       d="m 2499.9816,-2150.4039 0.1041,497.4226 c -0.1037,116.6054 -94.631,211.1327 -211.2363,211.1327 l -338.8491,-2e-4 c -116.6053,0 -211.1326,-94.5273 -211.1326,-211.1326 l 10e-5,-338.8583 c -10e-5,-116.6146 94.5272,-211.1419 211.1325,-211.1419 l 497.4996,0"
       id="path958"
       inkscape:connector-curvature="0"
       sodipodi:nodetypes="cccccccc" />
    <path
       style="fill:none;stroke:#ffffff;stroke-width:1.19999999;stroke-linecap:butt;stroke-linejoin:miter;stroke-miterlimit:4;stroke-dasharray:14.39999989,14.39999989;stroke-dashoffset:5.99999995;stroke-opacity:1"
       d="m 2499.9814,-2145.5 0.1043,492.5187 c -0.1037,116.6054 -94.631,211.1327 -211.2363,211.1327 l -338.8491,-2e-4 c -116.6053,0 -211.1326,-94.5273 -211.1326,-211.1326 l 10e-5,-338.8583 c -10e-5,-116.6146 94.5272,-211.1419 211.1325,-211.1419 l 492.4997,-10e-5"
       id="path878"
       inkscape:connector-curvature="0"
       sodipodi:nodetypes="cccccccc" />
    <path
       sodipodi:nodetypes="cccccccc"
       inkscape:connector-curvature="0"
       id="path960"
       d="m 2499.9816,-2255.4999 -0.1041,-497.4821 c 0.1037,-116.6054 94.631,-211.1327 211.2363,-211.1327 l 338.8491,2e-4 c 116.6053,0 211.1326,94.5273 211.1326,211.1326 l -10e-5,338.8583 c 10e-5,116.6146 -94.5272,211.1419 -211.1325,211.1419 l -497.463,10e-5"
       style="fill:none;stroke:#6d6d6d;stroke-width:74.99999237;stroke-linecap:butt;stroke-linejoin:miter;stroke-miterlimit:4;stroke-dasharray:none;stroke-dashoffset:525;stroke-opacity:1"
       inkscape:transform-center-x="-380.50492"
       inkscape:transform-center-y="-380.56657" />
    <path
       sodipodi:nodetypes="cc"
       inkscape:connector-curvature="0"
       id="path897"
       d="m -2670.3383,-2481.2037 c 0,-116.6053 94.5273,-211.1326 211.1326,-211.1326"
       style="fill:none;fill-opacity:1;stroke:#000000;stroke-width:75;stroke-miterlimit:4;stroke-dasharray:none;stroke-dashoffset:0;stroke-opacity:1" />
    <path
       style="fill:none;stroke:#000000;stroke-width:75.00862885;stroke-linecap:butt;stroke-linejoin:miter;stroke-miterlimit:4;stroke-dasharray:none;stroke-opacity:1"
       d="m -2459.2057,-2692.3363 h 497.5"
       id="path899"
       inkscape:connector-curvature="0"
       sodipodi:nodetypes="cc" />
    <path
       sodipodi:nodetypes="cc"
       inkscape:connector-curvature="0"
       id="path901"
       d="m -1909.0166,-2142.3361 -0.1713,-497.5"
       style="fill:none;stroke:#000000;stroke-width:75.00862885;stroke-linecap:butt;stroke-linejoin:miter;stroke-miterlimit:4;stroke-dasharray:none;stroke-opacity:1" />
    <path
       style="fill:none;fill-opacity:1;stroke:#000000;stroke-width:75;stroke-miterlimit:4;stroke-dasharray:none;stroke-dashoffset:0;stroke-opacity:1"
       d="m -2459.2057,-1931.2035 c -116.6053,0 -211.1326,-94.5273 -211.1326,-211.1326"
       id="path903"
       inkscape:connector-curvature="0"
       sodipodi:nodetypes="cc" />
    <path
       sodipodi:nodetypes="cc"
       inkscape:connector-curvature="0"
       id="path905"
       d="m -1909.224,-2142.3359 c 0,116.6053 -94.5273,211.1326 -211.1326,211.1326"
       style="fill:none;fill-opacity:1;stroke:#000000;stroke-width:75;stroke-miterlimit:4;stroke-dasharray:none;stroke-dashoffset:0;stroke-opacity:1" />
    <path
       sodipodi:nodetypes="cc"
       inkscape:connector-curvature="0"
       id="path907"
       d="m -2459.2057,-1931.2035 338.8491,2e-4"
       style="fill:none;stroke:#000000;stroke-width:75.00862885;stroke-linecap:butt;stroke-linejoin:miter;stroke-miterlimit:4;stroke-dasharray:none;stroke-opacity:1" />
    <path
       style="fill:none;stroke:#000000;stroke-width:75.00862885;stroke-linecap:butt;stroke-linejoin:miter;stroke-miterlimit:4;stroke-dasharray:none;stroke-opacity:1"
       d="m -2670.3383,-2142.3361 10e-5,-338.8491"
       id="path909"
       inkscape:connector-curvature="0"
       sodipodi:nodetypes="cc" />
    <path
       sodipodi:nodetypes="cccccccc"
       inkscape:connector-curvature="0"
       id="path925"
       d="m 2499.9817,-2260.4631 -0.1042,-492.5189 c 0.1037,-116.6054 94.631,-211.1327 211.2363,-211.1327 l 338.8491,2e-4 c 116.6053,0 211.1326,94.5273 211.1326,211.1326 l -10e-5,338.8583 c 10e-5,116.6146 -94.5272,211.1419 -211.1325,211.1419 l -492.4998,3e-4"
       style="fill:none;stroke:#ffffff;stroke-width:1.19999999;stroke-linecap:butt;stroke-linejoin:miter;stroke-miterlimit:4;stroke-dasharray:14.39999989,14.39999989;stroke-dashoffset:5.99999995;stroke-opacity:1"
       inkscape:transform-center-x="-380.50492"
       inkscape:transform-center-y="-380.56657" />
    <path
       sodipodi:nodetypes="cccccccc"
       inkscape:connector-curvature="0"
       id="path927"
       d="m -1469.9726,-3581.1333 0.068,497.5001 c -0.1037,116.6054 -94.631,211.1327 -211.2363,211.1327 l -338.8491,-2e-4 c -116.6053,0 -211.1326,-94.5273 -211.1326,-211.1326 l 1e-4,-338.8583 c -1e-4,-116.6146 94.5272,-211.1419 211.1325,-211.1419 h 497.5"
       style="fill:none;stroke:#000000;stroke-width:75.00862885;stroke-linecap:butt;stroke-linejoin:miter;stroke-miterlimit:4;stroke-dasharray:none;stroke-opacity:1" />
    <path
       inkscape:transform-center-y="-380.56657"
       inkscape:transform-center-x="-380.50492"
       style="fill:none;stroke:#000000;stroke-width:75.00862885;stroke-linecap:butt;stroke-linejoin:miter;stroke-miterlimit:4;stroke-dasharray:none;stroke-opacity:1"
       d="m -1470.0448,-3686.1338 -0.068,-497.5001 c 0.1037,-116.6054 94.631,-211.1327 211.2363,-211.1327 l 338.84908,2e-4 c 116.6053,0 211.1326,94.5273 211.1326,211.1326 l -10e-5,338.8583 c 10e-5,116.6146 -94.5272,211.1419 -211.1325,211.1419 h -497.49998"
       id="path929"
       inkscape:connector-curvature="0"
       sodipodi:nodetypes="cccccccc" />
    <rect
       style="fill:#fafafa;fill-opacity:1;stroke:none;stroke-width:1.20000005;stroke-miterlimit:4;stroke-dasharray:14.39999927, 14.39999927000000035;stroke-dashoffset:0;stroke-opacity:1"
       id="rect940"
       width="4.9999995"
       height="37.499996"
       x="2442.5"
       y="-2202.9817"
       inkscape:transform-center-x="54.981603"
       inkscape:transform-center-y="18.74996" />
    <rect
       inkscape:transform-center-y="54.981654"
       inkscape:transform-center-x="-18.749845"
       y="2499.9814"
       x="2145.5"
       height="37.54055"
       width="4.9856544"
       id="rect942"
       style="fill:#fafafa;fill-opacity:1;stroke:none;stroke-width:1.20000005;stroke-miterlimit:4;stroke-dasharray:14.39999927, 14.39999927;stroke-dashoffset:0;stroke-opacity:1"
       transform="rotate(-90)" />
    <rect
       transform="scale(-1)"
       style="fill:#fafafa;fill-opacity:1;stroke:none;stroke-width:1.20000005;stroke-miterlimit:4;stroke-dasharray:14.39999927, 14.39999927000000035;stroke-dashoffset:0;stroke-opacity:1"
       id="rect944"
       width="4.9999995"
       height="37.499996"
       x="-2557.4631"
       y="2202.9814"
       inkscape:transform-center-x="-54.981539"
       inkscape:transform-center-y="-18.749794" />
    <rect
       inkscape:transform-center-y="-54.981488"
       inkscape:transform-center-x="18.749909"
       y="-2499.9817"
       x="-2260.4631"
       height="37.499996"
       width="4.9999995"
       id="rect946"
       style="fill:#fafafa;fill-opacity:1;stroke:none;stroke-width:1.20000005;stroke-miterlimit:4;stroke-dasharray:14.39999927, 14.39999927000000035;stroke-dashoffset:0;stroke-opacity:1"
       transform="rotate(90)" />
    <rect
       style="fill:#4c4c4c;fill-opacity:1;stroke:none;stroke-width:0;stroke-miterlimit:4;stroke-dasharray:none;stroke-dashoffset:1984.25219727;stroke-opacity:1"
       id="rect962"
       width="104.99999"
       height="104.99999"
       x="2447.4817"
       y="-2255.4817" />
    <path
       style="color:#000000;font-style:normal;font-variant:normal;font-weight:normal;font-stretch:normal;font-size:medium;line-height:normal;font-family:sans-serif;font-variant-ligatures:normal;font-variant-position:normal;font-variant-caps:normal;font-variant-numeric:normal;font-variant-alternates:normal;font-feature-settings:normal;text-indent:0;text-align:start;text-decoration:none;text-decoration-line:none;text-decoration-style:solid;text-decoration-color:#000000;letter-spacing:normal;word-spacing:normal;text-transform:none;writing-mode:lr-tb;direction:ltr;text-orientation:mixed;dominant-baseline:auto;baseline-shift:baseline;text-anchor:start;white-space:normal;shape-padding:0;clip-rule:nonzero;display:inline;overflow:visible;visibility:visible;opacity:1;isolation:auto;mix-blend-mode:normal;color-interpolation:sRGB;color-interpolation-filters:linearRGB;solid-color:#000000;solid-opacity:1;vector-effect:none;fill:none;fill-opacity:1;fill-rule:nonzero;stroke:#d5da00;stroke-width:1.49999988;stroke-linecap:butt;stroke-linejoin:miter;stroke-miterlimit:4;stroke-dasharray:none;stroke-dashoffset:525;stroke-opacity:1;color-rendering:auto;image-rendering:auto;shape-rendering:auto;text-rendering:auto;enable-background:accumulate"
       d="m 2462.4824,-2150.3985 0.1035,497.3809 c -0.086,96.3569 -77.3975,173.6679 -173.7363,173.6679 H 1950 c -96.3388,0 -173.6328,-77.2921 -173.6328,-173.6309 v -338.8593 c -10e-5,-96.3497 77.294,-173.6426 173.6328,-173.6426 h 497.5 m 0,-75 -497.5,1e-4 c -136.8718,0 -248.6329,111.763 -248.6328,248.6426 v 338.8593 c 0,136.8718 111.761,248.6309 248.6328,248.6309 h 338.8496 c 136.8718,0 248.6146,-111.7457 248.7363,-248.5996 v -0.022 l -0.1035,-497.4433"
       id="path968"
       inkscape:connector-curvature="0"
       sodipodi:nodetypes="ccssscsccsssssccc" />
    <path
       style="color:#000000;font-style:normal;font-variant:normal;font-weight:normal;font-stretch:normal;font-size:medium;line-height:normal;font-family:sans-serif;font-variant-ligatures:normal;font-variant-position:normal;font-variant-caps:normal;font-variant-numeric:normal;font-variant-alternates:normal;font-feature-settings:normal;text-indent:0;text-align:start;text-decoration:none;text-decoration-line:none;text-decoration-style:solid;text-decoration-color:#000000;letter-spacing:normal;word-spacing:normal;text-transform:none;writing-mode:lr-tb;direction:ltr;text-orientation:mixed;dominant-baseline:auto;baseline-shift:baseline;text-anchor:start;white-space:normal;shape-padding:0;clip-rule:nonzero;display:inline;overflow:visible;visibility:visible;opacity:1;isolation:auto;mix-blend-mode:normal;color-interpolation:sRGB;color-interpolation-filters:linearRGB;solid-color:#000000;solid-opacity:1;vector-effect:none;fill:none;fill-opacity:1;fill-rule:nonzero;stroke:#d5da00;stroke-width:1.49999988;stroke-linecap:butt;stroke-linejoin:miter;stroke-miterlimit:4;stroke-dasharray:none;stroke-dashoffset:525;stroke-opacity:1;color-rendering:auto;image-rendering:auto;shape-rendering:auto;text-rendering:auto;enable-background:accumulate"
       d="m 2537.4824,-2255.5077 -0.1054,-497.4414 c 0.086,-96.357 77.3975,-173.666 173.7363,-173.666 h 338.8496 c 96.3388,0 173.6328,77.294 173.6328,173.6328 v 338.8594 c 1e-4,96.3496 -77.294,173.6406 -173.6328,173.6406 H 2552.5 m 0,75 h 497.4629 c 136.8718,0 248.6329,-111.7611 248.6328,-248.6406 v -338.8594 c 0,-136.8718 -111.761,-248.6328 -248.6328,-248.6328 l -338.8496,-1e-4 c -136.8718,0 -248.6146,111.7457 -248.7363,248.5996 v 0.022 l 0.1054,497.5019"
       id="path970"
       inkscape:connector-curvature="0"
       sodipodi:nodetypes="ccssscsccsssssccc" />
  </g>
</svg>
