<?xml version="1.0" encoding="UTF-8" standalone="no"?>
<!-- Created with Inkscape (http://www.inkscape.org/) -->

<svg
   xmlns:dc="http://purl.org/dc/elements/1.1/"
   xmlns:cc="http://creativecommons.org/ns#"
   xmlns:rdf="http://www.w3.org/1999/02/22-rdf-syntax-ns#"
   xmlns:svg="http://www.w3.org/2000/svg"
   xmlns="http://www.w3.org/2000/svg"
   xmlns:sodipodi="http://sodipodi.sourceforge.net/DTD/sodipodi-0.dtd"
   xmlns:inkscape="http://www.inkscape.org/namespaces/inkscape"
   width="500cm"
   height="500cm"
   viewBox="0 0 5000 4999.9999"
   version="1.1"
   id="svg8"
   inkscape:version="0.92.3 (2405546, 2018-03-11)"
   sodipodi:docname="mergeDesignV1.svg">
  <defs
     id="defs2">
    <marker
       inkscape:stockid="Arrow2Send"
       orient="auto"
       refY="0.0"
       refX="0.0"
       id="Arrow2Send"
       style="overflow:visible;"
       inkscape:isstock="true">
      <path
         id="path5436"
         style="fill-rule:evenodd;stroke-width:0.625;stroke-linejoin:round;stroke:#fffff9;stroke-opacity:1;fill:#fffff9;fill-opacity:1"
         d="M 8.7185878,4.0337352 L -2.2072895,0.016013256 L 8.7185884,-4.0017078 C 6.9730900,-1.6296469 6.9831476,1.6157441 8.7185878,4.0337352 z "
         transform="scale(0.3) rotate(180) translate(-2.3,0)" />
    </marker>
    <marker
       inkscape:stockid="TriangleInS"
       orient="auto"
       refY="0.0"
       refX="0.0"
       id="TriangleInS"
       style="overflow:visible"
       inkscape:isstock="true">
      <path
         id="path5542"
         d="M 5.77,0.0 L -2.88,5.0 L -2.88,-5.0 L 5.77,0.0 z "
         style="fill-rule:evenodd;stroke:#000000;stroke-width:1pt;stroke-opacity:1;fill:#000000;fill-opacity:1"
         transform="scale(-0.2)" />
    </marker>
    <marker
       inkscape:stockid="TriangleOutM"
       orient="auto"
       refY="0.0"
       refX="0.0"
       id="TriangleOutM"
       style="overflow:visible"
       inkscape:isstock="true">
      <path
         id="path5548"
         d="M 5.77,0.0 L -2.88,5.0 L -2.88,-5.0 L 5.77,0.0 z "
         style="fill-rule:evenodd;stroke:#000000;stroke-width:1pt;stroke-opacity:1;fill:#000000;fill-opacity:1"
         transform="scale(0.4)" />
    </marker>
    <marker
       inkscape:stockid="Arrow1Lend"
       orient="auto"
       refY="0.0"
       refX="0.0"
       id="Arrow1Lend"
       style="overflow:visible;"
       inkscape:isstock="true">
      <path
         id="path5406"
         d="M 0.0,0.0 L 5.0,-5.0 L -12.5,0.0 L 5.0,5.0 L 0.0,0.0 z "
         style="fill-rule:evenodd;stroke:#000000;stroke-width:1pt;stroke-opacity:1;fill:#000000;fill-opacity:1"
         transform="scale(0.8) rotate(180) translate(12.5,0)" />
    </marker>
    <marker
       inkscape:stockid="Arrow2Send"
       orient="auto"
       refY="0"
       refX="0"
       id="Arrow2Send-7"
       style="overflow:visible"
       inkscape:isstock="true">
      <path
         inkscape:connector-curvature="0"
         id="path5436-1"
         style="fill:#fffff9;fill-opacity:1;fill-rule:evenodd;stroke:#fffff9;stroke-width:0.625;stroke-linejoin:round;stroke-opacity:1"
         d="M 8.7185878,4.0337352 -2.2072895,0.01601326 8.7185884,-4.0017078 c -1.7454984,2.3720609 -1.7354408,5.6174519 -6e-7,8.035443 z"
         transform="matrix(-0.3,0,0,-0.3,0.69,0)" />
    </marker>
    <marker
       inkscape:stockid="Arrow2Send"
       orient="auto"
       refY="0"
       refX="0"
       id="Arrow2Send-6"
       style="overflow:visible"
       inkscape:isstock="true">
      <path
         inkscape:connector-curvature="0"
         id="path5436-17"
         style="fill:#fffff9;fill-opacity:1;fill-rule:evenodd;stroke:#fffff9;stroke-width:0.625;stroke-linejoin:round;stroke-opacity:1"
         d="M 8.7185878,4.0337352 -2.2072895,0.01601326 8.7185884,-4.0017078 c -1.7454984,2.3720609 -1.7354408,5.6174519 -6e-7,8.035443 z"
         transform="matrix(-0.3,0,0,-0.3,0.69,0)" />
    </marker>
    <marker
       inkscape:stockid="Arrow2Send"
       orient="auto"
       refY="0"
       refX="0"
       id="Arrow2Send-74"
       style="overflow:visible"
       inkscape:isstock="true">
      <path
         inkscape:connector-curvature="0"
         id="path5436-2"
         style="fill:#fffff9;fill-opacity:1;fill-rule:evenodd;stroke:#fffff9;stroke-width:0.625;stroke-linejoin:round;stroke-opacity:1"
         d="M 8.7185878,4.0337352 -2.2072895,0.01601326 8.7185884,-4.0017078 c -1.7454984,2.3720609 -1.7354408,5.6174519 -6e-7,8.035443 z"
         transform="matrix(-0.3,0,0,-0.3,0.69,0)" />
    </marker>
    <marker
       inkscape:stockid="Arrow2Send"
       orient="auto"
       refY="0"
       refX="0"
       id="Arrow2Send-74-3"
       style="overflow:visible"
       inkscape:isstock="true">
      <path
         inkscape:connector-curvature="0"
         id="path5436-2-9"
         style="fill:#fffff9;fill-opacity:1;fill-rule:evenodd;stroke:#fffff9;stroke-width:0.625;stroke-linejoin:round;stroke-opacity:1"
         d="M 8.7185878,4.0337352 -2.2072895,0.01601326 8.7185884,-4.0017078 c -1.7454984,2.3720609 -1.7354408,5.6174519 -6e-7,8.035443 z"
         transform="matrix(-0.3,0,0,-0.3,0.69,0)" />
    </marker>
    <marker
       inkscape:stockid="Arrow2Send"
       orient="auto"
       refY="0"
       refX="0"
       id="Arrow2Send-74-2"
       style="overflow:visible"
       inkscape:isstock="true">
      <path
         inkscape:connector-curvature="0"
         id="path5436-2-4"
         style="fill:#fffff9;fill-opacity:1;fill-rule:evenodd;stroke:#fffff9;stroke-width:0.625;stroke-linejoin:round;stroke-opacity:1"
         d="M 8.7185878,4.0337352 -2.2072895,0.01601326 8.7185884,-4.0017078 c -1.7454984,2.3720609 -1.7354408,5.6174519 -6e-7,8.035443 z"
         transform="matrix(-0.3,0,0,-0.3,0.69,0)" />
    </marker>
  </defs>
  <sodipodi:namedview
     id="base"
     pagecolor="#ffffff"
     bordercolor="#666666"
     borderopacity="1.0"
     inkscape:pageopacity="0.0"
     inkscape:pageshadow="2"
     inkscape:zoom="2.08"
     inkscape:cx="5403.3403"
     inkscape:cy="5505.5232"
     inkscape:document-units="cm"
     inkscape:current-layer="layer1"
     showgrid="false"
     units="cm"
     inkscape:window-width="1920"
     inkscape:window-height="1001"
     inkscape:window-x="-9"
     inkscape:window-y="-9"
     inkscape:window-maximized="1"
     viewbox-x="0"
     viewbox-y="0"
     showguides="true"
     inkscape:guide-bbox="true"
     inkscape:snap-center="true"
     inkscape:object-paths="false"
     inkscape:snap-intersection-paths="true"
     inkscape:lockguides="true">
    <inkscape:grid
       type="xygrid"
       id="grid836"
       spacingx="2.4999999"
       spacingy="2.4999999"
       empspacing="5"
       originx="2499.9999"
       originy="2499.9999"
       units="cm" />
    <sodipodi:guide
       position="2499.9816,2552.5676"
       orientation="1,0"
       id="guide844"
       inkscape:locked="true" />
    <sodipodi:guide
       position="2499.9816,2499.9816"
       orientation="0,1"
       id="guide854"
       inkscape:locked="true" />
    <sodipodi:guide
       position="2447.4999,2552.4999"
       orientation="0,1"
       id="guide862"
       inkscape:locked="true" />
    <sodipodi:guide
       position="2447.4999,2552.4999"
       orientation="1,0"
       id="guide864"
       inkscape:locked="true" />
    <sodipodi:guide
       position="2552.4999,2447.4999"
       orientation="0.001829798,-0.99999833"
       id="guide866"
       inkscape:locked="true" />
    <sodipodi:guide
       position="2552.4999,2447.4999"
       orientation="1,0"
       id="guide868"
       inkscape:locked="true" />
    <sodipodi:guide
       position="1949.9999,2499.9815"
       orientation="1,0"
       id="guide881"
       inkscape:locked="true" />
    <sodipodi:guide
       position="2499.8104,3049.9812"
       orientation="0,1"
       id="guide883"
       inkscape:locked="true" />
    <sodipodi:guide
       position="2500.189,1949.9813"
       orientation="0,1"
       id="guide885"
       inkscape:locked="true" />
    <sodipodi:guide
       position="3049.9999,2499.9815"
       orientation="1,0"
       id="guide887"
       inkscape:locked="true" />
    <sodipodi:guide
       position="1686.3673,1949.9813"
       orientation="1,0"
       id="guide852"
       inkscape:locked="true" />
  </sodipodi:namedview>
  <metadata
     id="metadata5">
    <rdf:RDF>
      <cc:Work
         rdf:about="">
        <dc:format>image/svg+xml</dc:format>
        <dc:type
           rdf:resource="http://purl.org/dc/dcmitype/StillImage" />
        <dc:title></dc:title>
      </cc:Work>
    </rdf:RDF>
  </metadata>
  <g
     inkscape:label="Layer 1"
     inkscape:groupmode="layer"
     id="layer1"
     transform="translate(0,4703)">
    <path
       style="color:#000000;font-style:normal;font-variant:normal;font-weight:normal;font-stretch:normal;font-size:medium;line-height:normal;font-family:sans-serif;font-variant-ligatures:normal;font-variant-position:normal;font-variant-caps:normal;font-variant-numeric:normal;font-variant-alternates:normal;font-feature-settings:normal;text-indent:0;text-align:start;text-decoration:none;text-decoration-line:none;text-decoration-style:solid;text-decoration-color:#000000;letter-spacing:normal;word-spacing:normal;text-transform:none;writing-mode:lr-tb;direction:ltr;text-orientation:mixed;dominant-baseline:auto;baseline-shift:baseline;text-anchor:start;white-space:normal;shape-padding:0;clip-rule:nonzero;display:inline;overflow:visible;visibility:visible;opacity:1;isolation:auto;mix-blend-mode:normal;color-interpolation:sRGB;color-interpolation-filters:linearRGB;solid-color:#000000;solid-opacity:1;vector-effect:none;fill:#505050;fill-opacity:1;fill-rule:nonzero;stroke:none;stroke-width:57.49999619;stroke-linecap:butt;stroke-linejoin:miter;stroke-miterlimit:4;stroke-dasharray:none;stroke-dashoffset:525;stroke-opacity:1;color-rendering:auto;image-rendering:auto;shape-rendering:auto;text-rendering:auto;enable-background:accumulate"
       d="m 2699.998,-2981.7676 c -64.384,0 -113.0454,23.2624 -146.7285,62.8731 -33.683,39.6106 -54.6813,91.9902 -79.9648,155.1992 -150.1838,375.4592 -193.7201,512.5475 -214.5977,580.9023 -20.8776,68.3548 -16.6744,62.306 -77.4258,166.2891 -57.3907,98.2308 -216.3139,284.9017 -326.4199,392.9668 -64.0077,62.8213 -152.2997,152.9252 -253.2851,254.7539 -76.6796,77.3201 -160.6427,161.3668 -246.6426,245.1738 -104.8135,102.1411 -300.0008,323.67089 -375.43555,400.43362 -0.002,0.002 -0.004,0.004 -0.006,0.006 -0.0153,0.0156 -0.13695,0.13667 -0.15235,0.15234 -72.39513,73.61988 -880.941437,881.08763 -957.109371,957.15235 -3.599697,3.59462 -42.546875,42.50195 -42.546875,42.50195 v 0.002 L -0.015625,296.9668 20.3125,317.32617 c 0,0 0.002,-0.002 0.002,-0.002 1.58e-4,-1.6e-4 35.839684,-35.80115 38.857422,-38.81445 70.063965,-69.96103 885.692815,-884.4076 961.326125,-961.3711 7e-4,-6.2e-4 0.01,-0.005 0.01,-0.006 75.0582,-76.33389 298.4914,-274.55378 399.7168,-374.71481 188.7638,-186.779 385.4302,-395.6311 499.1367,-499.1797 9.5226,-8.672 19.4606,-17.7051 29.7422,-27.0156 114.4562,-103.646 273.8064,-242.5776 365.0586,-294.2207 106.4225,-60.2287 101.3771,-57.9811 168.5215,-80.4239 67.1444,-22.4428 202.6349,-67.7579 577.9961,-217.9023 54.7034,-21.8814 107.1414,-43.0764 148.4531,-77.1133 41.3118,-34.0369 69.6191,-83.7887 69.6191,-149.5801 v -350 c 0,-130.3131 -98.4369,-228.75 -228.75,-228.75 z m 0,57.5 h 350 c 102.8976,0 171.25,68.3525 171.25,171.25 v 350 c 0,50.8232 -17.2259,79.2847 -48.6816,105.2012 -31.4557,25.9164 -79.0175,46.4148 -133.2441,68.1055 -374.6388,149.8554 -507.7268,194.3111 -574.8711,216.7539 -67.1444,22.4428 -72.1908,24.6892 -178.6133,84.9179 -64.6204,36.5713 -149.3778,103.9072 -231.8906,174.625 72.3702,-83.913 140.096,-170.952 176.9804,-234.0839 60.9832,-104.3799 62.1337,-110.9368 82.7696,-178.5 20.6358,-67.5633 63.1797,-201.8011 212.9961,-576.3418 25.1182,-62.7957 45.8157,-110.4185 70.3808,-139.3067 24.5652,-28.8882 50.7026,-42.6211 102.9238,-42.6211 z"
       id="path960-6"
       inkscape:connector-curvature="0" />
    <path
       style="color:#000000;font-style:normal;font-variant:normal;font-weight:normal;font-stretch:normal;font-size:medium;line-height:normal;font-family:sans-serif;font-variant-ligatures:normal;font-variant-position:normal;font-variant-caps:normal;font-variant-numeric:normal;font-variant-alternates:normal;font-feature-settings:normal;text-indent:0;text-align:start;text-decoration:none;text-decoration-line:none;text-decoration-style:solid;text-decoration-color:#000000;letter-spacing:normal;word-spacing:normal;text-transform:none;writing-mode:lr-tb;direction:ltr;text-orientation:mixed;dominant-baseline:auto;baseline-shift:baseline;text-anchor:start;white-space:normal;shape-padding:0;clip-rule:nonzero;display:inline;overflow:visible;visibility:visible;opacity:1;isolation:auto;mix-blend-mode:normal;color-interpolation:sRGB;color-interpolation-filters:linearRGB;solid-color:#000000;solid-opacity:1;vector-effect:none;fill:#6d6d6d;fill-opacity:1;fill-rule:nonzero;stroke:none;stroke-width:37.49999619;stroke-linecap:butt;stroke-linejoin:miter;stroke-miterlimit:4;stroke-dasharray:none;stroke-dashoffset:525;stroke-opacity:1;color-rendering:auto;image-rendering:auto;shape-rendering:auto;text-rendering:auto;enable-background:accumulate"
       d="m 2700,-2971.75 c -62.2688,0 -107.0121,21.6057 -139.1094,59.3516 -32.0973,37.7459 -53.044,89.2984 -78.2988,152.4355 -150.1198,375.2995 -193.4848,511.8903 -214.3203,580.1074 -20.8356,68.2172 -17.5638,64.362 -78.3555,168.4141 -58.6,100.3006 -217.3026,286.3652 -328.0488,395.0586 -63.8766,62.6926 -152.1794,152.8066 -253.1895,254.6601 -76.6983,77.339 -160.7004,161.4262 -246.7636,245.295 -104.0696,101.416 -299.1724,322.83096 -375.28324,400.28122 -0.001,0.001 -0.003,0.003 -0.004,0.004 -0.0103,0.0105 -0.0912,0.0911 -0.10156,0.10156 -76.20974,77.50149 -999.773437,999.77344 -999.773437,999.77344 l 26.496094,26.53516 c 0,0 921.755933,-920.37772 1000.121053,-1000.1211 4e-4,-4.1e-4 0,-0.003 0,-0.004 75.9179,-77.20857 299.1394,-275.19787 399.8145,-374.81448 188.5809,-186.598 385.0363,-395.2836 499.4375,-499.4648 9.5275,-8.6765 19.4733,-17.7167 29.7637,-27.0352 114.5541,-103.7347 273.368,-242.607 366.8457,-295.5097 106.4225,-60.2287 103.131,-58.7643 170.2754,-81.2071 67.1443,-22.4428 202.2175,-67.6089 577.4531,-217.7031 54.6205,-21.8482 106.2109,-42.9222 145.8086,-75.5469 39.5976,-32.6246 65.9786,-78.6731 65.9785,-141.8613 v -350 c 0,-125.5451 -93.2049,-218.75 -218.75,-218.75 z m 0,37.5 h 350 c 107.6655,0 181.25,73.5845 181.25,181.25 v 350 c 0,53.4264 -19.1544,85.5912 -52.3242,112.9199 -33.1698,27.3287 -81.5791,47.948 -135.8887,69.6719 -374.7644,149.9057 -508.2697,194.5103 -575.4141,216.9531 -67.1443,22.4428 -70.4349,23.908 -176.8574,84.1367 -101.8235,57.6259 -258.6273,196.2823 -373.5488,300.3496 -0.2284,0.2069 -0.4321,0.3931 -0.6602,0.5997 109.8423,-111.9966 247.6722,-274.7675 305.7383,-374.1543 60.9429,-104.3109 61.162,-108.6761 81.8399,-176.377 20.6779,-67.7009 63.3932,-202.4363 213.2734,-577.1367 25.147,-62.8675 45.898,-111.3154 72.0488,-142.0684 26.1509,-30.7529 56.2065,-46.1445 110.543,-46.1445 z"
       id="path960"
       inkscape:connector-curvature="0" />
    <rect
       style="fill:#fafafa;fill-opacity:1;stroke:none;stroke-width:1.20000005;stroke-miterlimit:4;stroke-dasharray:14.39999927, 14.39999927000000035;stroke-dashoffset:0;stroke-opacity:1"
       id="rect940"
       width="4.9999995"
       height="37.499996"
       x="2442.5"
       y="-2202.9817"
       inkscape:transform-center-x="54.981603"
       inkscape:transform-center-y="18.74996"
       inkscape:export-filename="/Users/dg/GitRepos/CrossCulturalDriving/ExternalResources/Intersection/Main.png"
       inkscape:export-xdpi="220"
       inkscape:export-ydpi="220" />
    <rect
       inkscape:transform-center-y="54.981654"
       inkscape:transform-center-x="-18.749845"
       y="2499.9814"
       x="2145.5"
       height="37.54055"
       width="4.9856544"
       id="rect942"
       style="fill:#fafafa;fill-opacity:1;stroke:none;stroke-width:1.20000005;stroke-miterlimit:4;stroke-dasharray:14.39999927, 14.39999927;stroke-dashoffset:0;stroke-opacity:1"
       transform="rotate(-90)"
       inkscape:export-filename="/Users/dg/GitRepos/CrossCulturalDriving/ExternalResources/Intersection/Main.png"
       inkscape:export-xdpi="220"
       inkscape:export-ydpi="220" />
    <rect
       transform="scale(-1)"
       style="fill:#fafafa;fill-opacity:1;stroke:none;stroke-width:1.20000005;stroke-miterlimit:4;stroke-dasharray:14.39999927, 14.39999927000000035;stroke-dashoffset:0;stroke-opacity:1"
       id="rect944"
       width="4.9999995"
       height="37.499996"
       x="-2557.4631"
       y="2202.9814"
       inkscape:transform-center-x="-54.981539"
       inkscape:transform-center-y="-18.749794"
       inkscape:export-filename="/Users/dg/GitRepos/CrossCulturalDriving/ExternalResources/Intersection/Main.png"
       inkscape:export-xdpi="220"
       inkscape:export-ydpi="220" />
    <rect
       inkscape:transform-center-y="-54.981488"
       inkscape:transform-center-x="18.749909"
       y="-2499.9817"
       x="-2260.4631"
       height="37.499996"
       width="4.9999995"
       id="rect946"
       style="fill:#fafafa;fill-opacity:1;stroke:none;stroke-width:1.20000005;stroke-miterlimit:4;stroke-dasharray:14.39999927, 14.39999927000000035;stroke-dashoffset:0;stroke-opacity:1"
       transform="rotate(90)"
       inkscape:export-filename="/Users/dg/GitRepos/CrossCulturalDriving/ExternalResources/Intersection/Main.png"
       inkscape:export-xdpi="220"
       inkscape:export-ydpi="220" />
    <path
       style="color:#000000;font-style:normal;font-variant:normal;font-weight:normal;font-stretch:normal;font-size:medium;line-height:normal;font-family:sans-serif;font-variant-ligatures:normal;font-variant-position:normal;font-variant-caps:normal;font-variant-numeric:normal;font-variant-alternates:normal;font-feature-settings:normal;text-indent:0;text-align:start;text-decoration:none;text-decoration-line:none;text-decoration-style:solid;text-decoration-color:#000000;letter-spacing:normal;word-spacing:normal;text-transform:none;writing-mode:lr-tb;direction:ltr;text-orientation:mixed;dominant-baseline:auto;baseline-shift:baseline;text-anchor:start;white-space:normal;shape-padding:0;clip-rule:nonzero;display:inline;overflow:visible;visibility:visible;opacity:1;isolation:auto;mix-blend-mode:normal;color-interpolation:sRGB;color-interpolation-filters:linearRGB;solid-color:#000000;solid-opacity:1;vector-effect:none;fill:#ffffff;fill-opacity:1;fill-rule:nonzero;stroke:none;stroke-width:1.20000005;stroke-linecap:butt;stroke-linejoin:miter;stroke-miterlimit:4;stroke-dasharray:14.39999989, 14.39999989;stroke-dashoffset:6;stroke-opacity:1;color-rendering:auto;image-rendering:auto;shape-rendering:auto;text-rendering:auto;enable-background:accumulate"
       d="m 1912.5059,-1614.9668 0.8476,0.8496 5.9492,-5.9316 -0.8476,-0.8496 z m -20.3907,20.3359 0.8457,0.8497 10.1973,-10.168 -0.8477,-0.8496 z m -20.3925,20.3379 0.8476,0.8496 10.1953,-10.1679 -0.8476,-0.8496 z m -20.3926,20.3379 0.8476,0.8496 10.1953,-10.1699 -0.8476,-0.8496 z m -20.3926,20.336 0.8477,0.8496 10.1953,-10.168 -0.8457,-0.8496 z m -20.3926,20.3379 0.8477,0.8496 10.1972,-10.17 -0.8476,-0.8496 z m -20.3926,20.3359 0.8477,0.8496 10.1973,-10.168 -0.8477,-0.8496 z m -20.3906,20.3379 0.8457,0.8496 10.1973,-10.168 -0.8477,-0.8496 z m -20.3926,20.3359 0.8477,0.8496 10.1953,-10.1679 -0.8476,-0.8497 z m -20.3925,20.3379 0.8476,0.8496 10.1953,-10.168 -0.8476,-0.8496 z m -20.3926,20.3379 0.8476,0.8496 10.1954,-10.1699 -0.8458,-0.8496 z m -20.3926,20.3359 0.8477,0.8496 10.1972,-10.1679 -0.8476,-0.8496 z m -20.3926,20.3379 0.8477,0.8496 10.1973,-10.1699 -0.8477,-0.8496 z m -20.3906,20.336 0.8457,0.8496 10.1973,-10.168 -0.8477,-0.8496 z m -20.3926,20.3379 0.8477,0.8496 10.1953,-10.168 -0.8477,-0.8496 z m -20.3926,20.3359 0.8477,0.8496 10.1953,-10.168 -0.8476,-0.8496 z m -20.3925,20.3379 0.8476,0.8496 10.1953,-10.168 -0.8457,-0.8496 z m -20.3926,20.3379 0.8476,0.8496 10.1973,-10.1699 -0.8476,-0.8496 z m -20.3926,20.3359 0.8477,0.8496 10.1972,-10.168 -0.8476,-0.8496 z m -20.3906,20.3379 0.8457,0.8496 10.1973,-10.1699 -0.8477,-0.8496 z m -20.3926,20.3359 0.8477,0.8496 10.1953,-10.1679 -0.8477,-0.8496 z m -20.3926,20.3379 0.8477,0.8496 10.1953,-10.1679 -0.8477,-0.8496 z m -20.3925,20.336 0.8476,0.8496 10.1953,-10.168 -0.8457,-0.8496 z m -20.3926,20.3379 0.8476,0.8496 10.1973,-10.168 -0.8477,-0.8496 z m -20.3926,20.3378 0.8477,0.8497 10.1972,-10.17 -0.8476,-0.8496 z m -20.3906,20.336 0.8457,0.8496 10.1972,-10.168 -0.8476,-0.8496 z"
       id="path925"
       inkscape:connector-curvature="0" />
    <g
       id="g17700">
      <path
         style="color:#000000;font-style:normal;font-variant:normal;font-weight:normal;font-stretch:normal;font-size:medium;line-height:normal;font-family:sans-serif;font-variant-ligatures:normal;font-variant-position:normal;font-variant-caps:normal;font-variant-numeric:normal;font-variant-alternates:normal;font-feature-settings:normal;text-indent:0;text-align:start;text-decoration:none;text-decoration-line:none;text-decoration-style:solid;text-decoration-color:#000000;letter-spacing:normal;word-spacing:normal;text-transform:none;writing-mode:lr-tb;direction:ltr;text-orientation:mixed;dominant-baseline:auto;baseline-shift:baseline;text-anchor:start;white-space:normal;shape-padding:0;clip-rule:nonzero;display:inline;overflow:visible;visibility:visible;opacity:1;isolation:auto;mix-blend-mode:normal;color-interpolation:sRGB;color-interpolation-filters:linearRGB;solid-color:#000000;solid-opacity:1;vector-effect:none;fill:#fffff9;fill-opacity:1;fill-rule:nonzero;stroke:none;stroke-width:4.99999952;stroke-linecap:butt;stroke-linejoin:miter;stroke-miterlimit:3.79999995;stroke-dasharray:none;stroke-dashoffset:0;stroke-opacity:1;color-rendering:auto;image-rendering:auto;shape-rendering:auto;text-rendering:auto;enable-background:accumulate"
         d="m 1419.207,-1159.6016 c 0,0 -5.2359,5.5082 -8.1132,10.2188 -1.7548,2.8727 -2.8121,6.6729 -3.5704,9.8808 -0.7582,3.208 -1.1425,5.8145 -1.1425,5.8145 l 4.9453,0.7324 c 0,0 0.358,-2.408 1.0644,-5.3965 0.7064,-2.9884 1.8369,-6.5676 2.9707,-8.4238 2.3411,-3.8326 7.4922,-9.4062 7.4922,-9.4062 z"
         id="path5401"
         inkscape:connector-curvature="0" />
      <path
         d="m 1416.2491,-1141.9596 -8.3622,15.3292 -3.5609,-17.0948 c 3.1362,3.1112 7.954,3.8094 11.9231,1.7656 z"
         style="fill:#fffff9;fill-opacity:1;fill-rule:evenodd;stroke:#fffff9;stroke-width:0.93749988;stroke-linejoin:round;stroke-opacity:1"
         id="path17706"
         inkscape:connector-curvature="0" />
    </g>
    <g
       id="g17708">
      <path
         style="color:#000000;font-style:normal;font-variant:normal;font-weight:normal;font-stretch:normal;font-size:medium;line-height:normal;font-family:sans-serif;font-variant-ligatures:normal;font-variant-position:normal;font-variant-caps:normal;font-variant-numeric:normal;font-variant-alternates:normal;font-feature-settings:normal;text-indent:0;text-align:start;text-decoration:none;text-decoration-line:none;text-decoration-style:solid;text-decoration-color:#000000;letter-spacing:normal;word-spacing:normal;text-transform:none;writing-mode:lr-tb;direction:ltr;text-orientation:mixed;dominant-baseline:auto;baseline-shift:baseline;text-anchor:start;white-space:normal;shape-padding:0;clip-rule:nonzero;display:inline;overflow:visible;visibility:visible;opacity:1;isolation:auto;mix-blend-mode:normal;color-interpolation:sRGB;color-interpolation-filters:linearRGB;solid-color:#000000;solid-opacity:1;vector-effect:none;fill:#fffff9;fill-opacity:1;fill-rule:nonzero;stroke:none;stroke-width:4.99999952;stroke-linecap:butt;stroke-linejoin:miter;stroke-miterlimit:3.79999995;stroke-dasharray:none;stroke-dashoffset:0;stroke-opacity:1;color-rendering:auto;image-rendering:auto;shape-rendering:auto;text-rendering:auto;enable-background:accumulate"
         d="m 1588.0078,-1327.3184 c 0,0 -5.2359,5.5082 -8.1133,10.2188 -1.7547,2.8727 -2.8101,6.6729 -3.5683,9.8808 -0.7583,3.208 -1.1446,5.8126 -1.1446,5.8126 l 4.9473,0.7324 c 0,0 0.3561,-2.4061 1.0625,-5.3946 0.7064,-2.9884 1.8369,-6.5695 2.9707,-8.4257 2.3411,-3.8327 7.4941,-9.4043 7.4941,-9.4043 z"
         id="path5401-4"
         inkscape:connector-curvature="0" />
      <path
         d="m 1585.0507,-1309.6768 -8.3622,15.3292 -3.5609,-17.0948 c 3.1362,3.1112 7.954,3.8094 11.9231,1.7656 z"
         style="fill:#fffff9;fill-opacity:1;fill-rule:evenodd;stroke:#fffff9;stroke-width:0.93749988;stroke-linejoin:round;stroke-opacity:1"
         id="path17714"
         inkscape:connector-curvature="0" />
    </g>
    <g
       id="g17716">
      <path
         style="color:#000000;font-style:normal;font-variant:normal;font-weight:normal;font-stretch:normal;font-size:medium;line-height:normal;font-family:sans-serif;font-variant-ligatures:normal;font-variant-position:normal;font-variant-caps:normal;font-variant-numeric:normal;font-variant-alternates:normal;font-feature-settings:normal;text-indent:0;text-align:start;text-decoration:none;text-decoration-line:none;text-decoration-style:solid;text-decoration-color:#000000;letter-spacing:normal;word-spacing:normal;text-transform:none;writing-mode:lr-tb;direction:ltr;text-orientation:mixed;dominant-baseline:auto;baseline-shift:baseline;text-anchor:start;white-space:normal;shape-padding:0;clip-rule:nonzero;display:inline;overflow:visible;visibility:visible;opacity:1;isolation:auto;mix-blend-mode:normal;color-interpolation:sRGB;color-interpolation-filters:linearRGB;solid-color:#000000;solid-opacity:1;vector-effect:none;fill:#fffff9;fill-opacity:1;fill-rule:nonzero;stroke:none;stroke-width:4.99999952;stroke-linecap:butt;stroke-linejoin:miter;stroke-miterlimit:3.79999995;stroke-dasharray:none;stroke-dashoffset:0;stroke-opacity:1;color-rendering:auto;image-rendering:auto;shape-rendering:auto;text-rendering:auto;enable-background:accumulate"
         d="m 1763.2949,-1504.1309 c 0,0 -5.2359,5.5082 -8.1133,10.2188 -1.7547,2.8727 -2.812,6.6709 -3.5703,9.8789 -0.7582,3.208 -1.1426,5.8145 -1.1425,5.8144 l 4.9453,0.7325 c 0,0 0.358,-2.4081 1.0644,-5.3965 0.7064,-2.9885 1.8369,-6.5676 2.9707,-8.4238 2.3411,-3.8327 7.4922,-9.4043 7.4922,-9.4043 z"
         id="path5401-3"
         inkscape:connector-curvature="0" />
      <path
         d="m 1760.3372,-1486.4897 -8.3622,15.3292 -3.5609,-17.0948 c 3.1362,3.1112 7.954,3.8094 11.9231,1.7656 z"
         style="fill:#fffff9;fill-opacity:1;fill-rule:evenodd;stroke:#fffff9;stroke-width:0.93749988;stroke-linejoin:round;stroke-opacity:1"
         id="path17722"
         inkscape:connector-curvature="0" />
    </g>
    <g
       id="g17724">
      <path
         style="color:#000000;font-style:normal;font-variant:normal;font-weight:normal;font-stretch:normal;font-size:medium;line-height:normal;font-family:sans-serif;font-variant-ligatures:normal;font-variant-position:normal;font-variant-caps:normal;font-variant-numeric:normal;font-variant-alternates:normal;font-feature-settings:normal;text-indent:0;text-align:start;text-decoration:none;text-decoration-line:none;text-decoration-style:solid;text-decoration-color:#000000;letter-spacing:normal;word-spacing:normal;text-transform:none;writing-mode:lr-tb;direction:ltr;text-orientation:mixed;dominant-baseline:auto;baseline-shift:baseline;text-anchor:start;white-space:normal;shape-padding:0;clip-rule:nonzero;display:inline;overflow:visible;visibility:visible;opacity:1;isolation:auto;mix-blend-mode:normal;color-interpolation:sRGB;color-interpolation-filters:linearRGB;solid-color:#000000;solid-opacity:1;vector-effect:none;fill:#fffff9;fill-opacity:1;fill-rule:nonzero;stroke:none;stroke-width:4.99999952;stroke-linecap:butt;stroke-linejoin:miter;stroke-miterlimit:3.79999995;stroke-dasharray:none;stroke-dashoffset:0;stroke-opacity:1;color-rendering:auto;image-rendering:auto;shape-rendering:auto;text-rendering:auto;enable-background:accumulate"
         d="m 1450.2891,-1123.3594 c 0,0 -5.5717,5.1531 -9.4043,7.4942 -1.8562,1.1338 -5.4354,2.2643 -8.4239,2.9707 -2.9884,0.7064 -5.3964,1.0625 -5.3964,1.0625 l 0.7324,4.9453 c 0,0 2.6065,-0.3843 5.8144,-1.1426 3.208,-0.7583 7.0062,-1.8155 9.8789,-3.5703 4.7106,-2.8774 10.2188,-8.1133 10.2188,-8.1133 z"
         id="path5401-9"
         inkscape:connector-curvature="0" />
      <path
         d="m 1437.8407,-1104.7839 -17.0948,-3.5609 15.3293,-8.3622 c -2.0688,3.9032 -1.3408,8.7166 1.7655,11.9231 z"
         style="fill:#fffff9;fill-opacity:1;fill-rule:evenodd;stroke:#fffff9;stroke-width:0.93749988;stroke-linejoin:round;stroke-opacity:1"
         id="path17730"
         inkscape:connector-curvature="0" />
    </g>
    <g
       id="g17732">
      <path
         style="color:#000000;font-style:normal;font-variant:normal;font-weight:normal;font-stretch:normal;font-size:medium;line-height:normal;font-family:sans-serif;font-variant-ligatures:normal;font-variant-position:normal;font-variant-caps:normal;font-variant-numeric:normal;font-variant-alternates:normal;font-feature-settings:normal;text-indent:0;text-align:start;text-decoration:none;text-decoration-line:none;text-decoration-style:solid;text-decoration-color:#000000;letter-spacing:normal;word-spacing:normal;text-transform:none;writing-mode:lr-tb;direction:ltr;text-orientation:mixed;dominant-baseline:auto;baseline-shift:baseline;text-anchor:start;white-space:normal;shape-padding:0;clip-rule:nonzero;display:inline;overflow:visible;visibility:visible;opacity:1;isolation:auto;mix-blend-mode:normal;color-interpolation:sRGB;color-interpolation-filters:linearRGB;solid-color:#000000;solid-opacity:1;vector-effect:none;fill:#fffff9;fill-opacity:1;fill-rule:nonzero;stroke:none;stroke-width:4.99999952;stroke-linecap:butt;stroke-linejoin:miter;stroke-miterlimit:3.79999995;stroke-dasharray:none;stroke-dashoffset:0;stroke-opacity:1;color-rendering:auto;image-rendering:auto;shape-rendering:auto;text-rendering:auto;enable-background:accumulate"
         d="m 1620.459,-1294.502 c 0,0 -5.5717,5.1531 -9.4043,7.4942 -1.8562,1.1338 -5.4354,2.2643 -8.4238,2.9707 -2.9885,0.7064 -5.3965,1.0644 -5.3965,1.0644 l 0.7324,4.9454 c 0,0 2.6065,-0.3863 5.8144,-1.1446 3.208,-0.7582 7.0082,-1.8136 9.8809,-3.5683 4.7106,-2.8774 10.2168,-8.1133 10.2168,-8.1133 z"
         id="path5401-9-6"
         inkscape:connector-curvature="0" />
      <path
         d="m 1608.0111,-1275.9253 -17.0948,-3.5609 15.3293,-8.3622 c -2.0688,3.9032 -1.3408,8.7166 1.7655,11.9231 z"
         style="fill:#fffff9;fill-opacity:1;fill-rule:evenodd;stroke:#fffff9;stroke-width:0.93749988;stroke-linejoin:round;stroke-opacity:1"
         id="path17738"
         inkscape:connector-curvature="0" />
    </g>
    <g
       id="g17740">
      <path
         style="color:#000000;font-style:normal;font-variant:normal;font-weight:normal;font-stretch:normal;font-size:medium;line-height:normal;font-family:sans-serif;font-variant-ligatures:normal;font-variant-position:normal;font-variant-caps:normal;font-variant-numeric:normal;font-variant-alternates:normal;font-feature-settings:normal;text-indent:0;text-align:start;text-decoration:none;text-decoration-line:none;text-decoration-style:solid;text-decoration-color:#000000;letter-spacing:normal;word-spacing:normal;text-transform:none;writing-mode:lr-tb;direction:ltr;text-orientation:mixed;dominant-baseline:auto;baseline-shift:baseline;text-anchor:start;white-space:normal;shape-padding:0;clip-rule:nonzero;display:inline;overflow:visible;visibility:visible;opacity:1;isolation:auto;mix-blend-mode:normal;color-interpolation:sRGB;color-interpolation-filters:linearRGB;solid-color:#000000;solid-opacity:1;vector-effect:none;fill:#fffff9;fill-opacity:1;fill-rule:nonzero;stroke:none;stroke-width:4.99999952;stroke-linecap:butt;stroke-linejoin:miter;stroke-miterlimit:3.79999995;stroke-dasharray:none;stroke-dashoffset:0;stroke-opacity:1;color-rendering:auto;image-rendering:auto;shape-rendering:auto;text-rendering:auto;enable-background:accumulate"
         d="m 1797.0312,-1471.541 c 0,0 -5.5716,5.1531 -9.4042,7.4941 -1.8562,1.1339 -5.4354,2.2643 -8.4239,2.9707 -2.9884,0.7064 -5.3965,1.0625 -5.3965,1.0625 l 0.7325,4.9453 c 0,0 2.6045,-0.3843 5.8125,-1.1425 3.2079,-0.7583 7.0081,-1.8156 9.8808,-3.5703 4.7106,-2.8774 10.2188,-8.1133 10.2188,-8.1133 z"
         id="path5401-9-8"
         inkscape:connector-curvature="0" />
      <path
         d="m 1784.5824,-1452.9656 -17.0948,-3.5609 15.3293,-8.3622 c -2.0688,3.9032 -1.3408,8.7166 1.7655,11.9231 z"
         style="fill:#fffff9;fill-opacity:1;fill-rule:evenodd;stroke:#fffff9;stroke-width:0.93749988;stroke-linejoin:round;stroke-opacity:1"
         id="path17746"
         inkscape:connector-curvature="0" />
    </g>
  </g>
</svg>
